<svg id="Capa_1" enable-background="new 0 0 511.877 511.877" height="512" viewBox="0 0 511.877 511.877" width="512" xmlns="http://www.w3.org/2000/svg"><g><path d="m310.298 473.315h-108.718l13.59 31.062h81.538z" fill="#eaf6ff"/><path d="m245.169 504.378h-30l-13.59-31.06h30z" fill="#d8ecfe"/><path d="m318.063 473.316h-124.249c-8.578 0-15.531-6.954-15.531-15.531 0-8.578 6.954-15.531 15.531-15.531h124.249c8.578 0 15.531 6.954 15.531 15.531 0 8.577-6.953 15.531-15.531 15.531z" fill="#9bd8f9"/><path d="m223.819 473.318h-30c-8.58 0-15.54-6.96-15.54-15.53 0-4.29 1.74-8.17 4.55-10.98s6.7-4.55 10.99-4.55h30c-4.29 0-8.18 1.74-10.99 4.55s-4.55 6.69-4.55 10.98c0 8.57 6.96 15.53 15.54 15.53z" fill="#73c3f9"/><path d="m318.063 442.253h-124.249c-8.578 0-15.531-6.954-15.531-15.531 0-8.578 6.954-15.531 15.531-15.531h124.249c8.578 0 15.531 6.954 15.531 15.531 0 8.577-6.953 15.531-15.531 15.531z" fill="#eaf6ff"/><path d="m223.819 442.248h-30c-8.58 0-15.54-6.95-15.54-15.53 0-4.28 1.74-8.17 4.55-10.98s6.7-4.55 10.99-4.55h30c-4.29 0-8.18 1.74-10.99 4.55s-4.55 6.7-4.55 10.98c0 8.58 6.96 15.53 15.54 15.53z" fill="#d8ecfe"/><path d="m318.063 411.191h-124.249c-8.578 0-15.531-6.954-15.531-15.531 0-8.578 6.954-15.531 15.531-15.531h124.249c8.578 0 15.531 6.954 15.531 15.531 0 8.577-6.953 15.531-15.531 15.531z" fill="#9bd8f9"/><path d="m223.819 411.188h-30c-8.58 0-15.54-6.95-15.54-15.53 0-4.29 1.74-8.17 4.55-10.98s6.7-4.55 10.99-4.55h30c-4.29 0-8.18 1.74-10.99 4.55s-4.55 6.69-4.55 10.98c0 8.58 6.96 15.53 15.54 15.53z" fill="#73c3f9"/><path d="m398.09 211.894c0-78.508-63.643-142.151-142.15-142.151-78.737 0-142.149 63.409-142.151 142.146-.002 54.667 30.857 102.124 76.105 125.908 8.796 4.624 14.355 13.687 14.355 23.624v18.706h103.381v-18.701c0-9.971 5.614-19.026 14.437-23.672 45.201-23.797 76.023-71.228 76.023-125.86z" fill="#f9d264"/><path d="m219.892 337.797c-45.248-23.784-76.107-71.241-76.105-125.908.002-73.657 55.498-133.901 127.118-141.367-4.919-.515-9.912-.779-14.967-.779-78.737 0-142.149 63.409-142.151 142.146-.002 54.667 30.857 102.124 76.105 125.908 8.796 4.624 14.355 13.687 14.355 23.624v18.706h30v-18.706c.001-9.937-5.558-19-14.355-23.624z" fill="#efc356"/><g><path d="m114.072 259.614c2.517 4.351 5.685 5.922 9.503 4.711 3.925-1.323 6.034-5.577 4.712-9.502-16.225-48.135-3.44-102.442 32.353-138.232 33.912-33.91 86.357-47.356 132.505-34.142 3.983 1.14 8.135-1.165 9.274-5.146 1.141-3.982-1.163-8.135-5.146-9.275-50.95-14.586-109.835.553-147.24 37.956-39.789 39.786-53.995 100.12-35.961 153.63z"/><path d="m325.563 344.394c49.362-25.991 80.026-76.761 80.026-132.496 0-54.083-29.333-104.13-76.552-130.611-3.614-2.026-8.185-.74-10.211 2.873-2.025 3.613-.739 8.184 2.873 10.21 42.493 23.831 68.89 68.865 68.89 117.528 0 50.15-27.595 95.834-72.01 119.221-11.38 5.98-18.45 17.595-18.45 30.31v11.2h-21.1v-109.029h23.563c21.263 0 38.562-17.299 38.562-38.623 0-21.264-17.299-38.563-38.563-38.563-21.263 0-38.562 17.299-38.562 38.563v23.623h-16.063v-23.623c0-21.264-17.299-38.563-38.563-38.563h-.119c-21.263 0-38.562 17.299-38.562 38.623 0 21.264 17.299 38.563 38.562 38.563h23.682v109.028h-21.219v-11.21c0-12.715-7.04-24.311-18.37-30.259-21.265-11.175-39.21-27.883-51.897-48.317-2.186-3.52-6.809-4.599-10.328-2.416-3.52 2.185-4.601 6.809-2.416 10.328 14.097 22.702 34.036 41.266 57.666 53.685 6.382 3.35 10.346 9.856 10.346 16.979v11.21c-31.476 0-33.81 31.703-19.916 38.571-13.227 4.466-11.893 26.133-.006 31.054-13.387 9.912-9.554 38.564 19.849 38.564l11.623 26.568c1.194 2.729 3.892 4.494 6.871 4.494h81.539c2.979 0 5.677-1.764 6.871-4.494l11.624-26.568c36.736 0 27.986-34.401 19.839-38.574 10.231-5.077 9.897-26.494.004-31.064 13.893-7.679 11.143-38.549-19.916-38.549v-11.2c-.001-7.127 3.995-13.653 10.433-17.036zm-46.533-119.417c0-12.992 10.57-23.563 23.563-23.563s23.562 10.57 23.562 23.623c0 12.992-10.569 23.563-23.562 23.563h-23.563zm-69.745 23.623c-12.992 0-23.562-10.57-23.562-23.623 0-12.992 10.569-23.563 23.562-23.563h.119c12.992 0 23.563 10.57 23.563 23.563v23.623zm38.682 15h16.063v109.028h-16.063zm43.836 233.277h-71.729l-7.027-16.062h85.782zm26.261-31.061h-124.25c-4.428 0-8.03-3.603-8.03-8.031s3.603-8.031 8.03-8.031h124.25c4.428 0 8.03 3.603 8.03 8.031s-3.603 8.031-8.03 8.031zm8.035-70.158c-.461 4.896-3.141 7.573-8.04 8.03h-30.82c-4.143 0-7.5 3.358-7.5 7.5s3.357 7.5 7.5 7.5h30.82c4.434 0 8.04 3.603 8.04 8.03 0 4.487-3.687 8.03-8.04 8.03h-124.24c-4.434 0-8.04-3.602-8.04-8.03.461-4.896 3.141-7.573 8.04-8.03h60.74c4.143 0 7.5-3.358 7.5-7.5s-3.357-7.5-7.5-7.5h-60.74c-4.434 0-8.04-3.602-8.04-8.03.461-4.896 3.141-7.573 8.04-8.03h124.24c4.433 0 8.04 3.602 8.04 8.03z"/><path d="m255.939 46.063c4.143 0 7.5-3.358 7.5-7.5v-31.063c0-4.142-3.357-7.5-7.5-7.5s-7.5 3.358-7.5 7.5v31.063c0 4.142 3.357 7.5 7.5 7.5z"/><path d="m129.873 93.887c3.536 2.929 7.072 2.929 10.607 0 2.929-2.929 2.929-7.677 0-10.606l-21.964-21.964c-2.929-2.929-7.677-2.929-10.607 0-2.929 2.929-2.929 7.678 0 10.606z"/><path d="m382.004 324.803c-2.929-2.929-7.677-2.929-10.607 0-2.929 2.929-2.929 7.678 0 10.606l21.964 21.964c3.536 2.929 7.072 2.929 10.607 0 2.929-2.929 2.929-7.677 0-10.606z"/><path d="m85.156 201.845h-31.062c-4.143 0-7.5 3.358-7.5 7.5s3.357 7.5 7.5 7.5h31.063c4.143 0 7.5-3.358 7.5-7.5s-3.358-7.5-7.501-7.5z"/><path d="m457.783 201.845h-31.063c-4.143 0-7.5 3.358-7.5 7.5s3.357 7.5 7.5 7.5h31.063c4.143 0 7.5-3.358 7.5-7.5s-3.357-7.5-7.5-7.5z"/><path d="m129.873 324.803-21.964 21.964c-2.929 2.929-2.929 7.678 0 10.606 3.536 2.929 7.072 2.929 10.607 0l21.964-21.964c2.929-2.929 2.929-7.678 0-10.606s-7.677-2.928-10.607 0z"/><path d="m393.361 61.316-21.964 21.964c-2.929 2.929-2.929 7.678 0 10.606 3.536 2.929 7.072 2.929 10.607 0l21.964-21.964c2.929-2.929 2.929-7.678 0-10.606-2.93-2.929-7.678-2.929-10.607 0z"/></g></g></svg>